<svg width="981" height="331" viewBox="0 0 981 331" fill="none" xmlns="http://www.w3.org/2000/svg">
<path d="M91.5386 28.8922C94.1714 31.5223 98.3529 31.7802 101.192 29.4079C125.301 9.60496 160.301 9.60495 184.461 29.3564C187.352 31.7286 191.585 31.5223 194.218 28.8922C197.264 25.8496 197.057 20.7957 193.702 18.0625C164.225 -6.02082 121.584 -6.02082 92.0548 18.0625C88.6993 20.7441 88.4412 25.798 91.5386 28.8922ZM112.343 49.675C114.873 52.202 118.848 52.4598 121.79 50.3455C127.949 45.9924 135.308 43.6547 142.853 43.6547C150.397 43.6547 157.756 45.9924 163.915 50.3455C166.858 52.4083 170.833 52.202 173.362 49.675L173.414 49.6235C176.511 46.5292 176.305 41.2691 172.743 38.7421C154.984 25.9012 130.773 25.9012 112.962 38.7421C109.4 41.3207 109.194 46.5293 112.343 49.675Z" fill="#4154F1"/>
<rect x="12.0208" y="186.877" width="185.58" height="185.58" rx="22.5" transform="rotate(-45 12.0208 186.877)" stroke="#4155F0" stroke-width="17"/>
<circle cx="142.746" cy="187.377" r="56.5" stroke="#4155F0" stroke-width="26"/>
<circle cx="142.746" cy="187.377" r="16" stroke="#4155F0" stroke-width="19"/>
<path d="M387.641 86.68L347.801 199H313.561L273.721 86.68H302.841L330.681 171.48L358.681 86.68H387.641ZM426.436 86.68V199H399.076V86.68H426.436ZM486.904 200.12C478.69 200.12 471.33 198.787 464.824 196.12C458.317 193.453 453.09 189.507 449.144 184.28C445.304 179.053 443.277 172.76 443.064 165.4H472.184C472.61 169.56 474.05 172.76 476.504 175C478.957 177.133 482.157 178.2 486.104 178.2C490.157 178.2 493.357 177.293 495.704 175.48C498.05 173.56 499.224 170.947 499.224 167.64C499.224 164.867 498.264 162.573 496.344 160.76C494.53 158.947 492.237 157.453 489.464 156.28C486.797 155.107 482.957 153.773 477.944 152.28C470.69 150.04 464.77 147.8 460.184 145.56C455.597 143.32 451.65 140.013 448.344 135.64C445.037 131.267 443.384 125.56 443.384 118.52C443.384 108.067 447.17 99.9067 454.744 94.04C462.317 88.0667 472.184 85.08 484.344 85.08C496.717 85.08 506.69 88.0667 514.264 94.04C521.837 99.9067 525.89 108.12 526.424 118.68H496.824C496.61 115.053 495.277 112.227 492.824 110.2C490.37 108.067 487.224 107 483.384 107C480.077 107 477.41 107.907 475.384 109.72C473.357 111.427 472.344 113.933 472.344 117.24C472.344 120.867 474.05 123.693 477.464 125.72C480.877 127.747 486.21 129.933 493.464 132.28C500.717 134.733 506.584 137.08 511.064 139.32C515.65 141.56 519.597 144.813 522.904 149.08C526.21 153.347 527.864 158.84 527.864 165.56C527.864 171.96 526.21 177.773 522.904 183C519.704 188.227 515.01 192.387 508.824 195.48C502.637 198.573 495.33 200.12 486.904 200.12ZM671.901 86.68V199H644.541V131.64L619.421 199H597.341L572.061 131.48V199H544.701V86.68H577.021L608.541 164.44L639.741 86.68H671.901ZM761.496 179.16H719.576L712.856 199H684.216L724.856 86.68H756.536L797.176 199H768.216L761.496 179.16ZM754.456 158.04L740.536 116.92L726.776 158.04H754.456ZM890.345 86.68V108.6H860.585V199H833.225V108.6H803.465V86.68H890.345ZM931.436 108.6V131.32H968.076V152.44H931.436V177.08H972.876V199H904.076V86.68H972.876V108.6H931.436Z" fill="#012970"/>
<path d="M316.069 234.665L315.354 238.57H298.744L296.434 251.715H309.964L309.249 255.62H295.719L292.639 273H287.634L294.454 234.665H316.069ZM328.604 273.495C326.074 273.495 323.837 272.982 321.894 271.955C319.987 270.892 318.502 269.425 317.439 267.555C316.376 265.648 315.844 263.448 315.844 260.955C315.844 257.545 316.632 254.428 318.209 251.605C319.786 248.745 321.949 246.49 324.699 244.84C327.486 243.19 330.584 242.365 333.994 242.365C336.524 242.365 338.761 242.897 340.704 243.96C342.684 244.987 344.206 246.453 345.269 248.36C346.369 250.23 346.919 252.43 346.919 254.96C346.919 258.37 346.112 261.487 344.499 264.31C342.886 267.133 340.686 269.37 337.899 271.02C335.112 272.67 332.014 273.495 328.604 273.495ZM329.209 269.26C331.592 269.26 333.737 268.618 335.644 267.335C337.551 266.015 339.036 264.292 340.099 262.165C341.199 260.002 341.749 257.692 341.749 255.235C341.749 252.448 340.942 250.322 339.329 248.855C337.716 247.352 335.699 246.6 333.279 246.6C330.896 246.6 328.769 247.26 326.899 248.58C325.029 249.863 323.581 251.587 322.554 253.75C321.527 255.913 321.014 258.242 321.014 260.735C321.014 263.448 321.784 265.557 323.324 267.06C324.864 268.527 326.826 269.26 329.209 269.26ZM359.88 248.58C361.09 246.6 362.611 245.06 364.445 243.96C366.278 242.86 368.368 242.31 370.715 242.31L369.78 247.48H368.46C365.856 247.48 363.675 248.177 361.915 249.57C360.191 250.963 359.036 253.31 358.45 256.61L355.535 273H350.53L355.865 242.86H360.87L359.88 248.58ZM395.019 264.75C394.909 265.3 394.854 265.777 394.854 266.18C394.854 267.097 395.129 267.757 395.679 268.16C396.266 268.563 397.201 268.765 398.484 268.765H402.169L401.399 273H396.889C394.506 273 392.709 272.542 391.499 271.625C390.326 270.708 389.739 269.205 389.739 267.115C389.739 266.308 389.812 265.52 389.959 264.75L393.094 246.985H389.244L389.959 242.86H393.864L395.184 235.27H400.244L398.924 242.86H406.734L406.019 246.985H398.154L395.019 264.75ZM427.868 242.31C430.875 242.31 433.295 243.153 435.128 244.84C436.962 246.49 437.878 248.892 437.878 252.045C437.878 253.218 437.787 254.282 437.603 255.235L434.468 273H429.518L432.543 255.95C432.69 255.18 432.763 254.373 432.763 253.53C432.763 251.293 432.14 249.588 430.893 248.415C429.683 247.242 427.978 246.655 425.778 246.655C423.138 246.655 420.883 247.48 419.013 249.13C417.18 250.78 415.988 253.182 415.438 256.335V256.225L412.468 273H407.463L414.668 232.3H419.673L417.033 247.205C418.28 245.665 419.857 244.473 421.763 243.63C423.707 242.75 425.742 242.31 427.868 242.31ZM461.069 242.365C463.599 242.365 465.781 242.86 467.614 243.85C469.484 244.803 470.896 246.16 471.849 247.92C472.839 249.643 473.334 251.623 473.334 253.86C473.334 254.63 473.242 255.565 473.059 256.665C472.912 257.618 472.674 258.608 472.344 259.635H448.254C448.181 260.368 448.144 260.9 448.144 261.23C448.144 263.76 448.896 265.74 450.399 267.17C451.939 268.563 453.937 269.26 456.394 269.26C458.557 269.26 460.446 268.765 462.059 267.775C463.709 266.748 464.956 265.392 465.799 263.705H471.189C469.869 266.602 467.834 268.967 465.084 270.8C462.371 272.597 459.217 273.495 455.624 273.495C451.847 273.495 448.804 272.413 446.494 270.25C444.221 268.05 443.084 265.062 443.084 261.285C443.084 260.222 443.194 259.085 443.414 257.875C443.964 254.758 445.082 252.027 446.769 249.68C448.456 247.333 450.527 245.537 452.984 244.29C455.477 243.007 458.172 242.365 461.069 242.365ZM467.999 256.005C468.109 255.272 468.164 254.593 468.164 253.97C468.164 251.623 467.412 249.808 465.909 248.525C464.442 247.242 462.517 246.6 460.134 246.6C457.567 246.6 455.239 247.443 453.149 249.13C451.059 250.78 449.647 253.072 448.914 256.005H467.999ZM502.262 234.665L508.367 267.61L526.242 234.665H531.632L510.347 273H504.572L496.872 234.665H502.262ZM539.045 237.965C538.238 237.965 537.56 237.708 537.01 237.195C536.497 236.645 536.24 235.967 536.24 235.16C536.24 234.06 536.643 233.125 537.45 232.355C538.257 231.548 539.192 231.145 540.255 231.145C541.098 231.145 541.777 231.402 542.29 231.915C542.803 232.428 543.06 233.107 543.06 233.95C543.06 235.05 542.657 236.003 541.85 236.81C541.043 237.58 540.108 237.965 539.045 237.965ZM540.64 242.86L535.305 273H530.3L535.635 242.86H540.64ZM554.45 273.495C551.297 273.495 548.712 272.743 546.695 271.24C544.679 269.737 543.67 267.72 543.67 265.19C543.67 264.713 543.689 264.365 543.725 264.145H548.62C548.474 265.722 548.932 267.005 549.995 267.995C551.095 268.985 552.672 269.48 554.725 269.48C556.779 269.48 558.429 269.095 559.675 268.325C560.959 267.518 561.6 266.4 561.6 264.97C561.6 263.76 561.087 262.807 560.06 262.11C559.034 261.413 557.457 260.662 555.33 259.855C553.46 259.158 551.92 258.498 550.71 257.875C549.5 257.252 548.474 256.39 547.63 255.29C546.787 254.153 546.365 252.723 546.365 251C546.365 249.313 546.842 247.81 547.795 246.49C548.785 245.17 550.142 244.162 551.865 243.465C553.625 242.732 555.624 242.365 557.86 242.365C560.94 242.365 563.47 243.135 565.45 244.675C567.43 246.215 568.42 248.232 568.42 250.725C568.42 251.202 568.402 251.568 568.365 251.825H563.58L563.635 251.165C563.635 249.698 563.067 248.543 561.93 247.7C560.83 246.82 559.364 246.38 557.53 246.38C555.734 246.38 554.249 246.783 553.075 247.59C551.939 248.397 551.37 249.478 551.37 250.835C551.37 252.118 551.902 253.127 552.965 253.86C554.029 254.593 555.679 255.4 557.915 256.28C559.785 257.013 561.289 257.692 562.425 258.315C563.562 258.902 564.534 259.727 565.34 260.79C566.147 261.853 566.55 263.192 566.55 264.805C566.55 266.565 566.019 268.105 564.955 269.425C563.929 270.745 562.499 271.753 560.665 272.45C558.832 273.147 556.76 273.495 554.45 273.495ZM604.636 242.86L599.301 273H594.296L595.066 268.6C593.856 270.14 592.316 271.332 590.446 272.175C588.576 273.018 586.632 273.44 584.616 273.44C581.462 273.44 578.932 272.597 577.026 270.91C575.156 269.187 574.221 266.73 574.221 263.54C574.221 262.733 574.312 261.725 574.496 260.515L577.631 242.86H582.581L579.611 259.855C579.464 260.625 579.391 261.432 579.391 262.275C579.391 264.512 579.996 266.217 581.206 267.39C582.452 268.527 584.176 269.095 586.376 269.095C589.016 269.095 591.252 268.27 593.086 266.62C594.956 264.97 596.147 262.568 596.661 259.415V259.58L599.631 242.86H604.636ZM608.521 257.82C609.071 254.74 610.171 252.045 611.821 249.735C613.508 247.388 615.543 245.573 617.926 244.29C620.346 243.007 622.913 242.365 625.626 242.365C628.266 242.365 630.448 242.933 632.171 244.07C633.895 245.207 635.086 246.637 635.746 248.36L636.736 242.86H641.796L636.461 273H631.401L632.446 267.39C631.126 269.15 629.385 270.617 627.221 271.79C625.058 272.927 622.675 273.495 620.071 273.495C617.725 273.495 615.653 273 613.856 272.01C612.06 270.983 610.666 269.535 609.676 267.665C608.686 265.795 608.191 263.632 608.191 261.175C608.191 260.075 608.301 258.957 608.521 257.82ZM634.096 257.875C634.243 257.105 634.316 256.28 634.316 255.4C634.316 252.723 633.51 250.615 631.896 249.075C630.32 247.498 628.303 246.71 625.846 246.71C623.976 246.71 622.18 247.15 620.456 248.03C618.77 248.91 617.321 250.193 616.111 251.88C614.901 253.567 614.095 255.547 613.691 257.82C613.545 258.59 613.471 259.433 613.471 260.35C613.471 263.063 614.26 265.208 615.836 266.785C617.413 268.325 619.43 269.095 621.886 269.095C623.756 269.095 625.535 268.655 627.221 267.775C628.945 266.858 630.411 265.557 631.621 263.87C632.868 262.147 633.693 260.148 634.096 257.875ZM657.129 232.3L649.924 273H644.919L652.124 232.3H657.129ZM670.664 232.3L663.459 273H658.454L665.659 232.3H670.664ZM679.305 242.86L684.42 267.17L698.115 242.86H703.285L677.325 287.19H672.1L680.625 272.67L673.75 242.86H679.305ZM731.188 234.665L724.368 273H719.363L726.183 234.665H731.188ZM774.588 242.31C777.668 242.31 780.124 243.153 781.958 244.84C783.828 246.49 784.763 248.91 784.763 252.1C784.763 253.273 784.671 254.318 784.488 255.235L781.353 273H776.403L779.428 255.95C779.574 255.18 779.648 254.355 779.648 253.475C779.648 251.238 779.043 249.552 777.833 248.415C776.659 247.242 774.991 246.655 772.828 246.655C770.334 246.655 768.189 247.425 766.393 248.965C764.633 250.468 763.423 252.65 762.763 255.51L759.628 273H754.678L757.703 255.95C757.849 255.107 757.923 254.263 757.923 253.42C757.923 251.22 757.318 249.552 756.108 248.415C754.934 247.242 753.266 246.655 751.103 246.655C748.499 246.655 746.281 247.498 744.448 249.185C742.614 250.835 741.423 253.237 740.873 256.39V256.28L737.903 273H732.898L738.233 242.86H743.238L742.468 247.205C743.714 245.628 745.254 244.418 747.088 243.575C748.921 242.732 750.846 242.31 752.863 242.31C755.393 242.31 757.519 242.878 759.243 244.015C761.003 245.152 762.158 246.82 762.708 249.02C763.954 246.893 765.641 245.243 767.768 244.07C769.931 242.897 772.204 242.31 774.588 242.31ZM798.913 248.415C800.233 246.692 801.974 245.262 804.138 244.125C806.301 242.952 808.666 242.365 811.233 242.365C813.579 242.365 815.651 242.86 817.448 243.85C819.281 244.803 820.693 246.197 821.683 248.03C822.673 249.827 823.168 251.953 823.168 254.41C823.168 255.473 823.058 256.61 822.838 257.82C822.288 260.863 821.169 263.577 819.483 265.96C817.833 268.343 815.798 270.195 813.378 271.515C810.994 272.835 808.464 273.495 805.788 273.495C803.221 273.495 801.058 272.927 799.298 271.79C797.574 270.617 796.328 269.168 795.558 267.445L792.093 287.3H787.088L794.898 242.86H799.903L798.913 248.415ZM817.723 257.82C817.869 257.05 817.943 256.207 817.943 255.29C817.943 252.613 817.154 250.523 815.578 249.02C814.001 247.48 811.966 246.71 809.473 246.71C807.639 246.71 805.861 247.168 804.138 248.085C802.414 248.965 800.929 250.267 799.683 251.99C798.473 253.677 797.666 255.638 797.263 257.875C797.116 258.645 797.043 259.488 797.043 260.405C797.043 263.082 797.831 265.208 799.408 266.785C801.021 268.325 803.056 269.095 805.513 269.095C807.383 269.095 809.161 268.655 810.848 267.775C812.571 266.858 814.038 265.557 815.248 263.87C816.494 262.147 817.319 260.13 817.723 257.82ZM827.501 257.82C828.051 254.74 829.151 252.045 830.801 249.735C832.487 247.388 834.522 245.573 836.906 244.29C839.326 243.007 841.892 242.365 844.606 242.365C847.246 242.365 849.427 242.933 851.151 244.07C852.874 245.207 854.066 246.637 854.726 248.36L855.716 242.86H860.776L855.441 273H850.381L851.426 267.39C850.106 269.15 848.364 270.617 846.201 271.79C844.037 272.927 841.654 273.495 839.051 273.495C836.704 273.495 834.632 273 832.836 272.01C831.039 270.983 829.646 269.535 828.656 267.665C827.666 265.795 827.171 263.632 827.171 261.175C827.171 260.075 827.281 258.957 827.501 257.82ZM853.076 257.875C853.222 257.105 853.296 256.28 853.296 255.4C853.296 252.723 852.489 250.615 850.876 249.075C849.299 247.498 847.282 246.71 844.826 246.71C842.956 246.71 841.159 247.15 839.436 248.03C837.749 248.91 836.301 250.193 835.091 251.88C833.881 253.567 833.074 255.547 832.671 257.82C832.524 258.59 832.451 259.433 832.451 260.35C832.451 263.063 833.239 265.208 834.816 266.785C836.392 268.325 838.409 269.095 840.866 269.095C842.736 269.095 844.514 268.655 846.201 267.775C847.924 266.858 849.391 265.557 850.601 263.87C851.847 262.147 852.672 260.148 853.076 257.875ZM872.644 237.965C871.837 237.965 871.159 237.708 870.609 237.195C870.095 236.645 869.839 235.967 869.839 235.16C869.839 234.06 870.242 233.125 871.049 232.355C871.855 231.548 872.79 231.145 873.854 231.145C874.697 231.145 875.375 231.402 875.889 231.915C876.402 232.428 876.659 233.107 876.659 233.95C876.659 235.05 876.255 236.003 875.449 236.81C874.642 237.58 873.707 237.965 872.644 237.965ZM874.239 242.86L868.904 273H863.899L869.234 242.86H874.239ZM886.784 248.58C887.994 246.6 889.516 245.06 891.349 243.96C893.182 242.86 895.272 242.31 897.619 242.31L896.684 247.48H895.364C892.761 247.48 890.579 248.177 888.819 249.57C887.096 250.963 885.941 253.31 885.354 256.61L882.439 273H877.434L882.769 242.86H887.774L886.784 248.58ZM916.376 242.365C918.906 242.365 921.088 242.86 922.921 243.85C924.791 244.803 926.203 246.16 927.156 247.92C928.146 249.643 928.641 251.623 928.641 253.86C928.641 254.63 928.55 255.565 928.366 256.665C928.22 257.618 927.981 258.608 927.651 259.635H903.561C903.488 260.368 903.451 260.9 903.451 261.23C903.451 263.76 904.203 265.74 905.706 267.17C907.246 268.563 909.245 269.26 911.701 269.26C913.865 269.26 915.753 268.765 917.366 267.775C919.016 266.748 920.263 265.392 921.106 263.705H926.496C925.176 266.602 923.141 268.967 920.391 270.8C917.678 272.597 914.525 273.495 910.931 273.495C907.155 273.495 904.111 272.413 901.801 270.25C899.528 268.05 898.391 265.062 898.391 261.285C898.391 260.222 898.501 259.085 898.721 257.875C899.271 254.758 900.39 252.027 902.076 249.68C903.763 247.333 905.835 245.537 908.291 244.29C910.785 243.007 913.48 242.365 916.376 242.365ZM923.306 256.005C923.416 255.272 923.471 254.593 923.471 253.97C923.471 251.623 922.72 249.808 921.216 248.525C919.75 247.242 917.825 246.6 915.441 246.6C912.875 246.6 910.546 247.443 908.456 249.13C906.366 250.78 904.955 253.072 904.221 256.005H923.306ZM932.828 257.82C933.378 254.74 934.478 252.045 936.128 249.735C937.815 247.388 939.868 245.573 942.288 244.29C944.708 243.007 947.275 242.365 949.988 242.365C952.298 242.365 954.37 242.915 956.203 244.015C958.036 245.078 959.338 246.49 960.108 248.25L962.913 232.3H967.973L960.768 273H955.708L956.753 267.335C955.47 269.132 953.746 270.617 951.583 271.79C949.42 272.927 947.036 273.495 944.433 273.495C942.086 273.495 940.015 273 938.218 272.01C936.421 270.983 935.01 269.535 933.983 267.665C932.993 265.795 932.498 263.632 932.498 261.175C932.498 260.075 932.608 258.957 932.828 257.82ZM958.403 257.875C958.55 257.105 958.623 256.28 958.623 255.4C958.623 252.723 957.816 250.615 956.203 249.075C954.626 247.498 952.61 246.71 950.153 246.71C948.283 246.71 946.486 247.15 944.763 248.03C943.076 248.91 941.628 250.193 940.418 251.88C939.208 253.567 938.401 255.547 937.998 257.82C937.851 258.59 937.778 259.433 937.778 260.35C937.778 263.063 938.566 265.208 940.143 266.785C941.72 268.325 943.736 269.095 946.193 269.095C948.063 269.095 949.841 268.655 951.528 267.775C953.251 266.858 954.718 265.557 955.928 263.87C957.175 262.147 958 260.148 958.403 257.875Z" fill="#012970"/>
</svg>
